<?xml version="1.0" encoding="UTF-8" standalone="no"?>
<svg
   xmlns:dc="http://purl.org/dc/elements/1.1/"
   xmlns:cc="http://creativecommons.org/ns#"
   xmlns:rdf="http://www.w3.org/1999/02/22-rdf-syntax-ns#"
   xmlns:svg="http://www.w3.org/2000/svg"
   xmlns="http://www.w3.org/2000/svg"
   id="svg2075"
   version="1.1"
   viewBox="0 0 49.041618 60.012501"
   height="60.012501mm"
   width="49.041618mm">
  <defs
     id="defs2069" />
  <metadata
     id="metadata2072">
    <rdf:RDF>
      <cc:Work
         rdf:about="">
        <dc:format>image/svg+xml</dc:format>
        <dc:type
           rdf:resource="http://purl.org/dc/dcmitype/StillImage" />
        <dc:title></dc:title>
      </cc:Work>
    </rdf:RDF>
  </metadata>
  <g
     transform="translate(291.372,133.57173)"
     id="layer1">
    <g
       style="opacity:1;stop-opacity:1"
       transform="matrix(0.35277777,0,0,-0.35277777,-246.81605,-102.34522)"
       id="g1516">
      <path
         id="path1518"
         style="fill:#e5dabd;fill-opacity:1;fill-rule:nonzero;stroke:none"
         d="m 0,0 c 0,-31.524 -25.555,-57.079 -57.079,-57.079 -31.524,0 -57.079,25.555 -57.079,57.079 0,31.524 25.555,57.079 57.079,57.079 C -25.555,57.079 0,31.524 0,0" />
    </g>
    <g
       style="opacity:1;stop-opacity:1"
       transform="matrix(0.35277777,0,0,-0.35277777,-261.72793,-124.49194)"
       id="g1520">
      <path
         id="path1522"
         style="fill:#bbcb32;fill-opacity:1;fill-rule:nonzero;stroke:none"
         d="m 0,0 c 0,-11.906 -5.506,-21.558 -12.298,-21.558 -6.793,0 -12.299,9.652 -12.299,21.558 0,11.906 5.506,21.558 12.299,21.558 C -5.506,21.558 0,11.906 0,0" />
    </g>
    <g
       style="opacity:1;stop-opacity:1"
       transform="matrix(0.35277777,0,0,-0.35277777,-249.28405,-79.948139)"
       id="g1524">
      <path
         id="path1526"
         style="fill:#bbcb32;fill-opacity:1;fill-rule:nonzero;stroke:none"
         d="m 0,0 c 9.136,3.416 9.809,10.779 7.915,18.541 -2.297,9.421 -27.343,5.055 -39.062,6.564 -11.719,1.51 -2.675,16.117 -2.675,16.117 0,0 -1.691,-0.622 -13.18,-1.541 -3.085,-0.247 -5.743,-0.123 -8,0.181 1.097,-2.086 1.573,-4.633 0.877,-7.716 -2.757,-12.226 -20.909,-14.064 -36.305,-10.618 0,0 0.119,0.07 0.291,0.173 -1.812,-0.4 -3.617,-0.833 -5.383,-1.322 -19.109,-5.285 -10.073,-14.246 -2.95,-20.68 7.123,-6.433 25.181,-13.73 44.347,-15.017 19.167,-1.286 34.697,2.38 34.697,2.38 -1.067,0.742 -1.826,1.57 -2.256,2.433 l -0.007,-0.01 c -37.19,3.802 -48.518,18.257 -48.518,18.257 -0.652,0.574 0.239,0.689 1.149,0.459 0,0 53.538,-9.421 67.784,-6.663 C 1.831,2.139 1.996,1.323 0,0" />
    </g>
    <g
       style="opacity:1;stop-opacity:1"
       transform="matrix(0.35277777,0,0,-0.35277777,-267.13108,-115.53029)"
       id="g1528">
      <path
         id="path1530"
         style="fill:#1b3956;fill-opacity:1;fill-rule:nonzero;stroke:none"
         d="m 0,0 c -5.353,0 -10.999,3.387 -16.801,10.081 -8.065,9.307 -4.996,25.301 2.93,34.403 6.035,6.927 13.86,8.589 20.418,4.322 8.468,-5.505 10.965,-11.824 11.568,-16.156 0.662,-4.752 -0.727,-8.155 -0.889,-8.527 -0.601,-1.398 -2.229,-2.045 -3.622,-1.44 -1.393,0.6 -2.038,2.21 -1.449,3.605 0.181,0.445 3.802,9.823 -8.613,17.894 -5.755,3.741 -10.775,-0.476 -13.254,-3.321 -6.276,-7.204 -9.018,-20.133 -2.92,-27.168 4.877,-5.627 9.46,-8.431 13.181,-8.157 3.402,0.266 5.854,3.102 7.312,5.434 0.808,1.294 2.513,1.684 3.8,0.878 1.291,-0.808 1.684,-2.51 0.878,-3.8 C 9.484,3.159 5.486,0.39 0.977,0.039 0.653,0.013 0.327,0 0,0" />
    </g>
    <g
       style="opacity:1;stop-opacity:1"
       transform="matrix(0.35277777,0,0,-0.35277777,-264.13691,-73.559226)"
       id="g1532">
      <path
         id="path1534"
         style="fill:#1b3956;fill-opacity:1;fill-rule:nonzero;stroke:none"
         d="m 0,0 c -31.977,0 -62.501,13.345 -67.147,25.807 -1.058,2.834 -0.912,5.579 0.418,7.933 3.721,6.586 15.733,8.837 27.349,11.013 5.075,0.951 9.87,1.849 12.916,2.983 2.571,0.959 4.055,2.146 4.538,3.628 1.251,3.851 -3.488,11.003 -7.669,17.311 -7.963,12.018 -2.876,27.489 -2.655,28.142 0.487,1.442 2.052,2.216 3.495,1.729 1.44,-0.486 2.216,-2.048 1.731,-3.49 -0.045,-0.134 -4.427,-13.594 2.025,-23.335 5.346,-8.063 10.394,-15.68 8.317,-22.062 -1.022,-3.143 -3.666,-5.527 -7.858,-7.089 -3.489,-1.302 -8.51,-2.242 -13.826,-3.237 -8.905,-1.669 -21.103,-3.954 -23.563,-8.306 -0.33,-0.585 -0.696,-1.565 -0.052,-3.292 4.404,-11.81 47.229,-28.701 84.542,-19.653 1.483,0.348 2.97,-0.551 3.33,-2.031 C 26.25,4.57 25.34,3.08 23.861,2.721 16.072,0.833 7.988,0 0,0" />
    </g>
    <g
       style="opacity:1;stop-opacity:1"
       transform="matrix(0.35277777,0,0,-0.35277777,-257.98962,-77.937165)"
       id="g1536">
      <path
         id="path1538"
         style="fill:#1b3956;fill-opacity:1;fill-rule:nonzero;stroke:none"
         d="m 0,0 c -14.23,0 -27.895,3.229 -45.753,10.424 -1.413,0.569 -2.096,2.176 -1.527,3.589 0.57,1.413 2.172,2.1 3.588,1.528 26.215,-10.567 40.972,-11.31 57.604,-9.017 7.868,1.08 13.396,3.705 15.988,7.588 2.319,3.479 1.962,7.421 1.253,10.117 -0.833,3.159 -12.173,3.124 -19.677,3.089 -7.493,-0.03 -14.569,-0.052 -19.283,1.69 -3.326,1.229 -5.603,3.152 -6.77,5.717 -2.33,5.122 0.158,11.676 3.04,19.264 0.685,1.804 1.4,3.684 2.084,5.633 4.342,12.378 3.314,23.522 3.303,23.633 -0.147,1.515 0.96,2.865 2.475,3.014 1.514,0.158 2.865,-0.96 3.014,-2.475 0.049,-0.503 1.153,-12.482 -3.59,-25.999 -0.698,-1.993 -1.429,-3.919 -2.131,-5.765 -2.443,-6.433 -4.554,-11.991 -3.175,-15.021 0.542,-1.194 1.739,-2.119 3.66,-2.828 3.781,-1.398 10.677,-1.36 17.354,-1.348 11.867,0.05 23.11,0.088 25.027,-7.2 1.431,-5.436 0.74,-10.478 -1.998,-14.582 C 30.945,5.743 24.276,2.382 14.663,1.059 9.595,0.363 4.764,0 0,0" />
    </g>
    <g
       style="opacity:1;stop-opacity:1"
       transform="matrix(0.35277777,0,0,-0.35277777,-270.38281,-81.438801)"
       id="g1540">
      <path
         id="path1542"
         style="fill:#1b3956;fill-opacity:1;fill-rule:nonzero;stroke:none"
         d="m 0,0 c -3.144,0 -6.447,0.118 -9.902,0.387 -1.514,0.118 -2.646,1.442 -2.528,2.956 0.118,1.514 1.45,2.648 2.956,2.528 26.283,-2.051 43.794,5.18 43.968,5.254 1.398,0.589 3.012,-0.066 3.602,-1.467 C 38.686,8.259 38.03,6.646 36.63,6.056 35.965,5.776 21.97,0 0,0" />
    </g>
    <g
       style="opacity:1;stop-opacity:1"
       transform="matrix(0.35277777,0,0,-0.35277777,-250.33317,-91.288709)"
       id="g1544">
      <path
         id="path1546"
         style="fill:#1b3956;fill-opacity:1;fill-rule:nonzero;stroke:none"
         d="m 0,0 c -4.761,0 -9.782,0.903 -14.469,2.711 -11.044,4.26 -7.568,19.123 -4.502,32.239 1.052,4.496 2.138,9.146 2.614,13.122 0.425,3.571 -0.252,6.38 -2.016,8.351 -3.3,3.689 -9.477,3.73 -9.689,3.73 h -0.003 c -1.436,0.024 -2.765,1.209 -2.783,2.727 -0.016,1.521 1.194,2.767 2.713,2.788 0.325,0 8.801,0.065 13.842,-5.534 2.888,-3.208 4.036,-7.486 3.411,-12.715 -0.512,-4.282 -1.634,-9.082 -2.72,-13.726 -3.19,-13.645 -4.978,-23.486 1.119,-25.837 6.595,-2.544 16.276,-3.58 23.038,-0.151 3.467,1.754 5.723,4.491 6.712,8.134 0.399,1.468 1.91,2.342 3.383,1.938 1.47,-0.398 2.337,-1.912 1.938,-3.382 C 21.195,9.256 17.896,5.24 13.047,2.784 9.385,0.928 4.827,0 0,0" />
    </g>
    <g
       style="opacity:1;stop-opacity:1"
       transform="matrix(0.35277777,0,0,-0.35277777,-273.27858,-111.09573)"
       id="g1548">
      <path
         id="path1550"
         style="fill:#1b3956;fill-opacity:1;fill-rule:nonzero;stroke:none"
         d="m 0,0 c -1.332,0 -2.508,0.959 -2.738,2.316 -0.257,1.514 0.762,2.95 2.276,3.207 2.023,0.343 3.465,1.194 4.41,2.602 1.928,2.87 1.439,7.574 1.088,9.145 -0.335,1.496 0.603,2.984 2.098,3.323 1.494,0.34 2.98,-0.591 3.324,-2.086 C 10.532,18.184 12.235,10.523 8.584,5.052 6.77,2.332 4.039,0.646 0.469,0.04 0.312,0.013 0.155,0 0,0" />
    </g>
    <g
       style="opacity:1;stop-opacity:1"
       transform="matrix(0.35277777,0,0,-0.35277777,-261.72666,-111.09573)"
       id="g1552">
      <path
         id="path1554"
         style="fill:#1b3956;fill-opacity:1;fill-rule:nonzero;stroke:none"
         d="m 0,0 c -0.155,0 -0.311,0.013 -0.469,0.04 -3.57,0.606 -6.301,2.292 -8.116,5.012 -3.651,5.472 -1.948,13.132 -1.873,13.455 0.344,1.497 1.834,2.43 3.333,2.088 1.494,-0.343 2.428,-1.831 2.089,-3.325 -0.351,-1.571 -0.84,-6.275 1.087,-9.145 C -3.004,6.717 -1.561,5.866 0.462,5.523 1.976,5.266 2.995,3.83 2.738,2.316 2.508,0.959 1.331,0 0,0" />
    </g>
    <g
       style="opacity:1;stop-opacity:1"
       transform="matrix(0.35277777,0,0,-0.35277777,-284.05185,-90.177917)"
       id="g1556">
      <path
         id="path1558"
         style="fill:#1b3956;fill-opacity:1;fill-rule:nonzero;stroke:none"
         d="m 0,0 c -1.917,0 -3.791,0.154 -5.556,0.483 -8.778,1.639 -14.167,7.186 -15.174,15.618 -0.182,1.511 0.897,2.883 2.411,3.064 1.511,0.188 2.884,-0.898 3.064,-2.411 0.718,-6.007 4.323,-9.656 10.711,-10.85 9.701,-1.808 21.338,2.81 22.95,5.843 1.581,2.98 -0.672,8.806 -3.282,15.552 -2.413,6.232 -5.145,13.298 -6.208,21.157 -0.849,6.285 0.309,11.317 3.44,14.959 4.5,5.229 11.367,5.396 11.658,5.402 1.455,0.054 2.777,-1.192 2.8,-2.715 0.023,-1.518 -1.185,-2.768 -2.7,-2.8 C 24.01,63.298 19.341,63.115 16.506,59.782 14.471,57.387 13.756,53.826 14.381,49.196 15.356,41.979 17.966,35.237 20.267,29.29 23.493,20.951 26.04,14.367 23.274,9.159 20.517,3.967 9.721,0 0,0" />
    </g>
  </g>
</svg>
