<?xml version="1.0" encoding="UTF-8" standalone="no"?>
<svg
   xmlns:dc="http://purl.org/dc/elements/1.1/"
   xmlns:cc="http://creativecommons.org/ns#"
   xmlns:rdf="http://www.w3.org/1999/02/22-rdf-syntax-ns#"
   xmlns:svg="http://www.w3.org/2000/svg"
   xmlns="http://www.w3.org/2000/svg"
   id="svg2173"
   version="1.1"
   viewBox="0 0 40.272404 40.978653"
   height="40.978653mm"
   width="40.272404mm">
  <defs
     id="defs2167" />
  <metadata
     id="metadata2170">
    <rdf:RDF>
      <cc:Work
         rdf:about="">
        <dc:format>image/svg+xml</dc:format>
        <dc:type
           rdf:resource="http://purl.org/dc/dcmitype/StillImage" />
        <dc:title></dc:title>
      </cc:Work>
    </rdf:RDF>
  </metadata>
  <g
     transform="translate(266.57667,91.548851)"
     id="layer1">
    <g
       style="opacity:1;stop-opacity:1"
       transform="matrix(0.35277777,0,0,-0.35277777,-226.30427,-70.7064)"
       id="g1600">
      <path
         id="path1602"
         style="fill:#e5dabd;fill-opacity:1;fill-rule:nonzero;stroke:none"
         d="m 0,0 c 0,-31.524 -25.555,-57.079 -57.079,-57.079 -31.523,0 -57.079,25.555 -57.079,57.079 0,31.524 25.556,57.079 57.079,57.079 C -25.555,57.079 0,31.524 0,0" />
    </g>
    <g
       style="opacity:1;stop-opacity:1"
       transform="matrix(0.35277777,0,0,-0.35277777,-230.28523,-69.366407)"
       id="g1604">
      <path
         id="path1606"
         style="fill:#bbcb32;fill-opacity:1;fill-rule:nonzero;stroke:none"
         d="m 0,0 c 6.116,-27.272 -6.74,-26.348 -13.48,-28.186 -6.741,-1.838 -16.085,4.421 -16.085,4.421 13.481,-0.641 18.842,3.238 18.842,3.238 l -7.965,-0.247 c -7.966,-0.248 -13.174,5.149 -18.383,7.507 -5.208,2.359 -12.837,0.947 -15.318,-3.727 -2.481,-4.673 -10.111,-3.78 -10.111,-3.78 -2.931,-3.925 -6.317,-6.625 -9.428,-8.478 4.653,-4.59 13.43,-11.998 22.996,-13.615 3.365,-0.569 4.27,-1.8 3.725,-3.34 4.222,0.042 8.048,0.535 11.813,0.806 11.948,0.862 36.687,3.906 39.562,10.366 C 9.043,-28.575 0,0 0,0" />
    </g>
    <g
       style="opacity:1;stop-opacity:1"
       transform="matrix(0.35277777,0,0,-0.35277777,-229.9339,-68.424138)"
       id="g1608">
      <path
         id="path1610"
         style="fill:#bbcb32;fill-opacity:1;fill-rule:nonzero;stroke:none"
         d="M 0,0 C 0,0 -8.546,21.474 -2.567,42.187 -2.567,42.187 12.982,46.52 0,0" />
    </g>
    <g
       style="opacity:1;stop-opacity:1"
       transform="matrix(0.35277777,0,0,-0.35277777,-252.69851,-79.265493)"
       id="g1612">
      <path
         id="path1614"
         style="fill:#bbcb32;fill-opacity:1;fill-rule:nonzero;stroke:none"
         d="m 0,0 c -9.612,-7.026 -20.653,-8.277 -24.662,-2.793 -4.008,5.483 0.535,15.624 10.147,22.65 9.612,7.027 20.653,8.277 24.662,2.794 C 14.155,17.167 9.612,7.026 0,0" />
    </g>
    <g
       style="opacity:1;stop-opacity:1"
       transform="matrix(0.35277777,0,0,-0.35277777,-258.72416,-76.573339)"
       id="g1616">
      <path
         id="path1618"
         style="fill:#1b3956;fill-opacity:1;fill-rule:nonzero;stroke:none"
         d="m 0,0 c -5.385,0 -9.624,1.775 -12.295,5.163 -3.504,4.441 -4.025,11.291 -1.547,20.36 3.247,11.881 18.249,18.221 30.217,16.706 C 25.491,41.069 31.219,35.49 31.325,27.67 31.462,17.569 27.6,11.979 24.337,9.067 20.757,5.874 17.156,5.136 16.758,5.062 c -1.49,-0.287 -2.937,0.711 -3.212,2.21 -0.276,1.49 0.704,2.923 2.188,3.208 0.465,0.095 10.278,2.301 10.077,17.115 -0.092,6.863 -6.388,8.687 -10.132,9.164 C 6.204,37.953 -6.069,33.049 -8.522,24.069 -10.485,16.885 -10.292,11.528 -7.965,8.577 -5.85,5.899 -2.158,5.448 0.619,5.524 2.152,5.576 3.413,4.377 3.461,2.854 3.51,1.332 2.314,0.059 0.792,0.013 0.526,0.004 0.26,0 0,0" />
    </g>
    <g
       style="opacity:1;stop-opacity:1"
       transform="matrix(0.35277777,0,0,-0.35277777,-246.48969,-52.304557)"
       id="g1620">
      <path
         id="path1622"
         style="fill:#1b3956;fill-opacity:1;fill-rule:nonzero;stroke:none"
         d="m 0,0 c -16.546,0 -28.862,4.712 -43.595,20.497 -16.688,17.88 -7.269,36.763 0.043,44.248 1.065,1.088 2.809,1.112 3.899,0.047 1.088,-1.063 1.111,-2.806 0.05,-3.895 -0.709,-0.733 -17.19,-18.176 0.04,-36.637 C -20.84,4.197 -6.857,3.651 20.567,7.19 l 0.957,0.123 c 29.406,3.794 29.327,4.447 28.368,12.439 -0.323,2.687 -1.531,7.543 -2.933,13.165 -4.551,18.275 -11.43,45.893 -3.565,58.556 0.804,1.298 2.506,1.693 3.797,0.889 1.294,-0.804 1.691,-2.504 0.888,-3.797 C 41.444,77.882 48.246,50.569 52.31,34.25 53.817,28.209 55.005,23.437 55.368,20.409 57.057,6.337 50.37,5.473 22.229,1.844 L 21.274,1.722 C 13.313,0.693 6.344,0 0,0" />
    </g>
    <g
       style="opacity:1;stop-opacity:1"
       transform="matrix(0.35277777,0,0,-0.35277777,-236.12155,-60.982467)"
       id="g1624">
      <path
         id="path1626"
         style="fill:#1b3956;fill-opacity:1;fill-rule:nonzero;stroke:none"
         d="m 0,0 c -7.434,0 -12.963,3.009 -18.743,6.156 -0.962,0.524 -1.946,1.059 -2.958,1.592 -3.664,1.924 -7.633,-0.178 -12.841,-3.355 -3.364,-2.056 -6.511,-4.003 -9.651,-3.617 -7.496,0.92 -9.44,13.082 -11.499,25.961 l -0.078,0.477 c -0.632,3.957 0.122,7.369 2.244,10.143 3.869,5.062 10.917,5.87 11.215,5.902 1.516,0.167 2.874,-0.931 3.035,-2.446 0.162,-1.512 -0.928,-2.869 -2.438,-3.036 -0.073,-0.007 -5.042,-0.619 -7.446,-3.79 -1.172,-1.543 -1.553,-3.473 -1.163,-5.9 l 0.075,-0.48 c 1.253,-7.834 3.35,-20.942 6.728,-21.356 1.183,-0.176 3.916,1.513 6.104,2.849 4.881,2.98 11.57,7.058 18.282,3.527 1.037,-0.546 2.043,-1.091 3.026,-1.628 C -9.062,7.164 -3.497,4.138 5.635,6.175 7.134,6.509 8.595,5.57 8.927,4.086 9.259,2.599 8.324,1.126 6.838,0.793 4.373,0.242 2.109,0 0,0" />
    </g>
    <g
       style="opacity:1;stop-opacity:1"
       transform="matrix(0.35277777,0,0,-0.35277777,-245.51507,-70.626141)"
       id="g1628">
      <path
         id="path1630"
         style="fill:#1b3956;fill-opacity:1;fill-rule:nonzero;stroke:none"
         d="m 0,0 c -16.233,0 -25.805,5.482 -26.256,5.748 -1.314,0.768 -1.755,2.458 -0.985,3.772 0.77,1.314 2.461,1.753 3.771,0.985 0.104,-0.059 11.362,-6.403 29.884,-4.689 17.74,1.652 21.651,8.529 21.685,8.599 0.682,1.361 2.338,1.912 3.7,1.233 1.363,-0.682 1.914,-2.337 1.233,-3.7 C 32.539,10.961 27.613,2.251 6.924,0.327 4.5,0.101 2.188,0 0,0" />
    </g>
  </g>
</svg>
