<?xml version="1.0" encoding="UTF-8" standalone="no"?>
<svg
   xmlns:dc="http://purl.org/dc/elements/1.1/"
   xmlns:cc="http://creativecommons.org/ns#"
   xmlns:rdf="http://www.w3.org/1999/02/22-rdf-syntax-ns#"
   xmlns:svg="http://www.w3.org/2000/svg"
   xmlns="http://www.w3.org/2000/svg"
   id="svg2263"
   version="1.1"
   viewBox="0 0 40.272404 80.142288"
   height="80.142288mm"
   width="40.272404mm">
  <defs
     id="defs2257" />
  <metadata
     id="metadata2260">
    <rdf:RDF>
      <cc:Work
         rdf:about="">
        <dc:format>image/svg+xml</dc:format>
        <dc:type
           rdf:resource="http://purl.org/dc/dcmitype/StillImage" />
        <dc:title></dc:title>
      </cc:Work>
    </rdf:RDF>
  </metadata>
  <g
     transform="translate(293.79096,104.3271)"
     id="layer1">
    <g
       style="opacity:1;stop-opacity:1"
       transform="matrix(0.35277777,0,0,-0.35277777,-253.51856,-63.035695)"
       id="g1560">
      <path
         id="path1562"
         style="fill:#e5dabd;fill-opacity:1;fill-rule:nonzero;stroke:none"
         d="m 0,0 c 0,-31.524 -25.555,-57.079 -57.079,-57.079 -31.523,0 -57.079,25.555 -57.079,57.079 0,31.524 25.556,57.079 57.079,57.079 C -25.555,57.079 0,31.524 0,0" />
    </g>
    <g
       style="opacity:1;stop-opacity:1"
       transform="matrix(0.35277777,0,0,-0.35277777,-266.11735,-41.116625)"
       id="g1564">
      <path
         id="path1566"
         style="fill:#bbcb32;fill-opacity:1;fill-rule:nonzero;stroke:none"
         d="m 0,0 c 0,0 -0.451,-37.566 -1.904,-44.563 0,0 20.989,-6.135 1.904,44.563" />
    </g>
    <g
       style="opacity:1;stop-opacity:1"
       transform="matrix(0.35277777,0,0,-0.35277777,-263.37983,-59.415841)"
       id="g1568">
      <path
         id="path1570"
         style="fill:#bbcb32;fill-opacity:1;fill-rule:nonzero;stroke:none"
         d="m 0,0 v -0.46 c -8.995,5.698 -12.167,13.298 -13.295,17.907 -8.483,-2.829 -21.555,-1.133 -21.555,-1.133 0,0 -24.882,-15.488 -32.475,-27.267 -7.593,-11.779 -6.493,-21.492 0,-25.582 6.493,-4.089 18.382,2.605 31.663,3.332 13.28,0.728 15.824,-14.269 15.824,-14.269 13.787,27.022 -19.914,35.907 -19.914,35.907 0,0 8.054,6.018 16.155,4.111 -0.595,0.216 -1.219,0.43 -1.908,0.637 -8.982,2.708 -22.365,-7.87 -22.365,-7.87 2.297,12.197 18.535,14.917 24.203,12.29 4.415,-2.046 6.685,-7.382 7.476,-9.648 2.741,-3.09 5.139,-7.892 6.774,-15.145 1.491,-6.618 1.242,-28.45 0.776,-45.497 1.492,16.376 4.433,36.244 6.649,47.182 C 0.462,-13.399 1.236,-5.423 0,0" />
    </g>
    <g
       style="opacity:1;stop-opacity:1"
       transform="matrix(0.35277777,0,0,-0.35277777,-266.13188,-94.527603)"
       id="g1572">
      <path
         id="path1574"
         style="fill:#bbcb32;fill-opacity:1;fill-rule:nonzero;stroke:none"
         d="m 0,0 c 0,-11.906 -5.506,-21.558 -12.298,-21.558 -6.793,0 -12.299,9.652 -12.299,21.558 0,11.906 5.506,21.558 12.299,21.558 C -5.506,21.558 0,11.906 0,0" />
    </g>
    <g
       style="opacity:1;stop-opacity:1"
       transform="matrix(0.35277777,0,0,-0.35277777,-271.29842,-86.285481)"
       id="g1576">
      <path
         id="path1578"
         style="fill:#1b3956;fill-opacity:1;fill-rule:nonzero;stroke:none"
         d="m 0,0 c -5.351,0 -10.999,3.387 -16.801,10.082 -8.065,9.306 -4.996,25.3 2.93,34.402 6.035,6.929 13.86,8.589 20.418,4.322 8.468,-5.505 10.965,-11.824 11.568,-16.156 0.662,-4.752 -0.727,-8.155 -0.889,-8.527 -0.603,-1.398 -2.228,-2.046 -3.622,-1.44 -1.393,0.6 -2.038,2.21 -1.449,3.605 0.181,0.445 3.802,9.823 -8.613,17.894 -5.755,3.743 -10.775,-0.476 -13.254,-3.321 -6.276,-7.204 -9.019,-20.132 -2.92,-27.168 4.877,-5.629 9.449,-8.437 13.181,-8.157 3.404,0.266 5.856,3.102 7.314,5.434 0.809,1.293 2.511,1.684 3.8,0.878 1.291,-0.808 1.684,-2.51 0.878,-3.8 C 9.486,3.159 5.488,0.39 0.978,0.039 0.653,0.013 0.327,0 0,0" />
    </g>
    <g
       style="opacity:1;stop-opacity:1"
       transform="matrix(0.35277777,0,0,-0.35277777,-280.41836,-68.526858)"
       id="g1580">
      <path
         id="path1582"
         style="fill:#1b3956;fill-opacity:1;fill-rule:nonzero;stroke:none"
         d="m 0,0 c -12.496,0 -15.742,5.249 -16.171,6.066 -0.136,0.262 -0.231,0.542 -0.28,0.835 -3.226,19.606 25.387,40.625 26.608,41.51 1.23,0.893 2.955,0.62 3.85,-0.61 0.894,-1.233 0.622,-2.957 -0.61,-3.852 C 13.13,43.755 -13.008,24.552 -11.096,8.417 -10.033,7.342 -4.141,2.768 15.93,7.811 c -0.348,4.615 -0.623,14.718 2.847,21.078 0.727,1.338 2.4,1.831 3.741,1.099 1.336,-0.729 1.83,-2.404 1.099,-3.741 C 20.585,20.689 21.158,9.812 21.633,6.091 21.809,4.727 20.951,3.441 19.624,3.079 11.363,0.826 4.955,0 0,0" />
    </g>
    <g
       style="opacity:1;stop-opacity:1"
       transform="matrix(0.35277777,0,0,-0.35277777,-262.80349,-68.526858)"
       id="g1584">
      <path
         id="path1586"
         style="fill:#1b3956;fill-opacity:1;fill-rule:nonzero;stroke:none"
         d="m 0,0 c -4.955,0 -11.361,0.826 -19.624,3.079 -1.327,0.362 -2.185,1.648 -2.009,3.012 0.475,3.721 1.048,14.598 -1.984,20.156 -0.731,1.337 -0.237,3.012 1.099,3.741 1.339,0.729 3.014,0.237 3.741,-1.099 3.47,-6.36 3.195,-16.463 2.847,-21.078 19.834,-4.982 25.825,-0.566 27.031,0.642 1.864,16.128 -24.231,35.302 -24.498,35.496 -1.232,0.895 -1.504,2.619 -0.61,3.852 0.895,1.23 2.619,1.508 3.85,0.61 C -8.936,47.526 19.677,26.507 16.451,6.901 16.402,6.608 16.307,6.328 16.171,6.066 15.742,5.249 12.492,0 0,0" />
    </g>
    <g
       style="opacity:1;stop-opacity:1"
       transform="matrix(0.35277777,0,0,-0.35277777,-266.83183,-24.184808)"
       id="g1588">
      <path
         id="path1590"
         style="fill:#1b3956;fill-opacity:1;fill-rule:nonzero;stroke:none"
         d="m 0,0 c -1.427,0 -2.633,1.099 -2.745,2.546 -0.522,6.776 0.474,44.792 5.346,62.081 4.326,15.348 8.8,31.219 2.869,40.505 -6.899,10.809 -5.454,17.525 -5.267,18.255 0.379,1.472 1.876,2.372 3.357,1.986 1.459,-0.375 2.344,-1.849 1.996,-3.309 C 5.518,121.867 4.61,116.729 10.119,108.1 17.379,96.729 12.564,79.649 7.908,63.13 3.29,46.742 2.264,9.331 2.752,2.969 2.87,1.45 1.734,0.126 0.215,0.009 0.144,0.002 0.072,0 0,0" />
    </g>
    <g
       style="opacity:1;stop-opacity:1"
       transform="matrix(0.35277777,0,0,-0.35277777,-270.28263,-41.802214)"
       id="g1592">
      <path
         id="path1594"
         style="fill:#1b3956;fill-opacity:1;fill-rule:nonzero;stroke:none"
         d="m 0,0 c -1.33,0 -2.501,0.964 -2.72,2.319 -0.328,2.047 -2.317,8.858 -14.135,10.628 -3.317,0.495 -7.819,-0.173 -12.584,-0.88 -8.193,-1.219 -16.664,-2.485 -21.988,1.89 -2.759,2.264 -4.274,5.768 -4.501,10.417 -0.991,20.3 38.318,42.937 39.993,43.892 1.326,0.754 3.006,0.292 3.759,-1.031 0.754,-1.323 0.292,-3.007 -1.029,-3.761 -10.584,-6.035 -37.901,-24.776 -37.215,-38.83 0.151,-3.072 0.964,-5.172 2.49,-6.425 3.436,-2.817 10.677,-1.738 17.68,-0.698 5.179,0.771 10.064,1.499 14.214,0.879 C -0.521,16.076 2.248,6.173 2.727,3.195 2.967,1.691 1.944,0.276 0.442,0.034 0.293,0.011 0.145,0 0,0" />
    </g>
    <g
       style="opacity:1;stop-opacity:1"
       transform="matrix(0.35277777,0,0,-0.35277777,-265.23724,-44.726071)"
       id="g1596">
      <path
         id="path1598"
         style="fill:#1b3956;fill-opacity:1;fill-rule:nonzero;stroke:none"
         d="m 0,0 c -1.341,0 -2.517,0.98 -2.723,2.348 -2.043,13.58 -7.226,22.872 -15.846,28.403 -6.963,4.473 -22.716,-6.368 -27.685,-10.518 -1.166,-0.977 -2.904,-0.82 -3.883,0.346 -0.976,1.167 -0.822,2.905 0.345,3.883 2.275,1.905 22.563,18.392 34.203,10.931 C -5.694,29.042 0.469,18.199 2.73,3.167 2.957,1.662 1.919,0.257 0.413,0.031 0.275,0.009 0.136,0 0,0" />
    </g>
  </g>
</svg>
